<svg width="41" height="42" viewBox="0 0 41 42" fill="none" xmlns="http://www.w3.org/2000/svg">
  <path opacity="0.4" fill-rule="evenodd" clip-rule="evenodd"
    d="M20.5 0.78479C5.73487 0.78479 0.5 6.15053 0.5 21.2848C0.5 36.419 5.73487 41.7848 20.5 41.7848C35.2672 41.7848 40.5 36.419 40.5 21.2848C40.5 6.15053 35.2672 0.78479 20.5 0.78479Z"
    fill="#EF0000" />
  <path
    d="M25.4238 27.8932C25.8176 27.8932 26.2114 27.7376 26.5109 27.4306C27.112 26.8146 27.112 25.8158 26.5109 25.1998L22.6668 21.2617L26.4884 17.3425C27.0894 16.7265 27.0894 15.7298 26.4884 15.1138C25.8873 14.4977 24.915 14.4977 24.314 15.1138L20.4904 19.033L16.6627 15.1096C16.0617 14.4935 15.0894 14.4935 14.4884 15.1096C13.8873 15.7256 13.8873 16.7223 14.4884 17.3383L18.3161 21.2617L14.4884 25.1893C13.8873 25.8053 13.8873 26.8019 14.4884 27.418C14.7879 27.7271 15.1838 27.8806 15.5755 27.8806C15.9694 27.8806 16.3632 27.7271 16.6627 27.418L20.4925 23.4925L24.3345 27.4306C24.6361 27.7376 25.0279 27.8932 25.4238 27.8932Z"
    fill="#EF0000" />
</svg>